<?xml version="1.0" standalone="no"?>
<!DOCTYPE svg PUBLIC "-//W3C//DTD SVG 20010904//EN"
 "http://www.w3.org/TR/2001/REC-SVG-20010904/DTD/svg10.dtd">
<svg version="1.0" xmlns="http://www.w3.org/2000/svg"
 width="200.000000pt" height="200.000000pt" viewBox="0 0 200.000000 200.000000"
 preserveAspectRatio="xMidYMid meet">
<metadata>
Created by potrace 1.14, written by Peter Selinger 2001-2017
</metadata>
<g transform="translate(0.000000,200.000000) scale(0.100000,-0.100000)"
fill="#000000" stroke="none">
<path d="M902 1847 c7 -7 22 -16 33 -20 17 -6 17 -4 -4 13 -26 22 -50 28 -29
7z"/>
<path d="M832 1822 c-1 -8 -14 -11 -37 -9 -19 2 -32 1 -29 -4 6 -11 -29 -29
-58 -30 -21 0 -22 -1 -3 -8 16 -7 8 -13 -50 -39 -108 -49 -119 -56 -133 -84
-9 -20 -10 -32 -1 -52 10 -20 9 -30 -5 -50 -16 -25 -16 -25 -46 -8 -30 17 -32
16 -51 -7 -23 -28 -25 -69 -3 -99 9 -13 13 -26 10 -29 -8 -9 -56 37 -56 54 0
7 -4 13 -10 13 -17 0 -11 -36 11 -64 18 -22 18 -26 4 -26 -24 0 -12 -24 13
-28 26 -4 27 -6 5 -39 -26 -39 -24 -130 3 -168 12 -16 24 -43 28 -60 15 -61
18 -90 11 -83 -4 4 -17 3 -30 -2 -15 -6 -29 -4 -43 5 -18 13 -20 13 -25 -4 -2
-11 4 -32 14 -48 10 -15 19 -35 19 -44 0 -9 9 -28 20 -42 11 -14 20 -34 20
-46 0 -11 14 -35 30 -53 17 -18 28 -26 26 -18 -14 49 -16 71 -6 65 5 -3 10 0
10 8 0 19 33 47 46 39 16 -10 5 -72 -13 -72 -10 0 -13 -9 -11 -27 3 -30 28
-44 28 -16 0 10 9 36 20 58 18 35 20 56 18 195 -3 143 -1 159 19 200 25 51 40
69 102 124 42 37 46 38 95 33 29 -3 74 -1 101 4 51 10 125 -3 125 -22 0 -6 9
-8 21 -4 14 5 27 -1 45 -20 28 -30 29 -35 9 -35 -18 0 -19 -12 -2 -29 10 -10
8 -15 -7 -27 -11 -8 -16 -15 -10 -15 5 -1 15 -2 23 -3 8 0 19 -9 25 -19 9 -14
7 -20 -6 -28 -9 -5 -24 -16 -32 -24 -8 -8 -19 -15 -24 -15 -5 0 -15 -7 -22
-15 -7 -9 -17 -12 -21 -8 -11 11 -28 133 -19 133 9 0 21 42 15 48 -2 3 -9 -7
-14 -22 -6 -14 -15 -26 -20 -26 -15 0 -22 -30 -11 -50 8 -15 3 -26 -24 -54
-18 -20 -41 -36 -50 -36 -10 0 -27 -5 -39 -11 -11 -7 -47 -11 -79 -10 -36 1
-69 -4 -88 -14 -48 -25 -64 -75 -24 -75 15 0 14 -10 -4 -60 -3 -8 11 0 31 18
37 31 57 40 57 24 0 -4 -13 -16 -30 -25 -16 -10 -30 -25 -30 -33 0 -17 12 -18
28 -2 16 16 42 -7 42 -38 0 -15 6 -24 15 -24 17 0 20 -16 5 -25 -21 -13 2 -23
32 -14 44 12 125 94 132 133 3 17 13 42 22 55 l17 23 18 -29 c13 -20 20 -57
24 -123 3 -52 11 -107 16 -121 9 -23 6 -34 -17 -70 -15 -24 -33 -48 -41 -52
-8 -5 -11 -16 -8 -28 4 -13 0 -28 -10 -40 -17 -18 -17 -19 1 -26 15 -5 12 -9
-17 -19 -49 -18 -76 -17 -89 4 -9 16 -11 15 -30 -7 -11 -13 -20 -27 -20 -32 0
-12 27 -11 35 1 8 13 72 13 137 -1 l53 -12 -41 -18 c-23 -9 -44 -22 -48 -27
-11 -18 6 -43 40 -57 46 -19 45 -50 -3 -101 -50 -52 -64 -79 -50 -93 8 -8 6
-11 -8 -12 -18 0 -18 -1 3 -11 23 -11 24 -15 26 -58 1 -15 6 -24 15 -22 7 1
18 -1 25 -6 19 -14 126 -8 137 9 5 7 9 10 9 5 0 -4 12 0 28 10 20 13 42 18 85
16 52 -3 59 -1 64 17 3 12 14 21 25 21 12 0 17 -4 12 -12 -5 -8 -2 -9 12 -4
10 5 27 11 36 13 10 3 15 9 12 14 -3 5 3 6 12 2 13 -5 15 -3 9 7 -5 9 -4 11 4
6 14 -9 53 2 46 14 -3 4 1 8 8 7 33 -1 46 4 41 17 -3 8 7 18 25 26 33 13 39
25 19 34 -19 7 22 38 41 31 21 -8 81 58 74 84 -5 21 37 90 78 127 24 21 72 42
119 50 46 8 49 12 44 46 -5 39 -12 90 -13 100 -1 3 -23 6 -50 5 -60 -2 -77 12
-115 89 -23 47 -27 66 -23 112 3 36 10 58 21 64 9 5 16 16 16 25 0 13 -2 14
-17 2 -12 -10 -15 -10 -9 -1 14 23 -4 49 -42 61 -20 7 -41 12 -45 11 -4 0 -15
6 -23 15 -9 8 -21 15 -28 15 -7 0 -26 10 -41 21 -20 16 -29 19 -34 10 -5 -7
-11 21 -14 62 -4 41 -11 85 -15 98 -8 19 -4 30 14 52 24 29 40 87 31 111 -3 8
-16 20 -28 26 -20 11 -21 10 -16 -12 3 -13 2 -30 -3 -38 -8 -13 -10 -13 -10 2
0 9 -3 18 -7 20 -5 2 -23 20 -40 41 -23 26 -33 48 -33 72 0 18 -7 40 -15 49
-8 8 -15 19 -15 25 0 5 -9 16 -19 23 -11 8 -22 30 -26 51 -4 20 -12 37 -17 37
-6 0 -8 6 -5 13 7 19 -23 35 -81 43 -49 6 -52 5 -101 -36 l-51 -43 -61 32
c-49 27 -69 32 -109 29 -48 -3 -49 -2 -53 27 -2 17 -5 24 -5 17z m355 -58 c-3
-3 -12 -4 -19 -1 -8 3 -5 6 6 6 11 1 17 -2 13 -5z"/>
<path d="M1770 999 c0 -5 5 -7 10 -4 6 3 10 8 10 11 0 2 -4 4 -10 4 -5 0 -10
-5 -10 -11z"/>
<path d="M477 694 c-4 -4 -7 -28 -7 -53 0 -32 3 -42 10 -31 8 13 10 13 14 0 3
-8 6 -24 8 -35 2 -11 19 -28 38 -37 53 -26 63 -23 55 15 -12 59 -15 65 -33 60
-24 -6 -54 19 -67 56 -6 18 -14 29 -18 25z"/>
<path d="M806 660 c-20 -22 -36 -46 -36 -54 0 -8 -3 -23 -7 -33 -4 -10 17 4
45 31 33 32 52 58 52 73 0 33 -12 29 -54 -17z"/>
<path d="M905 630 c3 -5 11 -10 16 -10 6 0 7 5 4 10 -3 6 -11 10 -16 10 -6 0
-7 -4 -4 -10z"/>
<path d="M648 298 c8 -28 112 -148 112 -129 0 9 5 9 20 1 21 -11 79 -10 86 2
3 4 0 8 -7 8 -7 0 -27 13 -44 28 -16 16 -50 37 -75 47 -25 10 -57 30 -72 43
l-27 25 7 -25z"/>
<path d="M566 177 c-54 -33 -72 -67 -54 -97 9 -14 16 -16 25 -8 7 6 13 7 13 3
0 -4 7 -2 15 5 8 7 15 26 15 42 0 16 5 38 10 49 12 21 4 23 -24 6z"/>
<path d="M811 131 c-10 -17 -9 -21 3 -21 20 0 27 13 16 29 -6 11 -10 9 -19 -8z"/>
</g>
</svg>
