<?xml version="1.0" standalone="no"?>
<!DOCTYPE svg PUBLIC "-//W3C//DTD SVG 20010904//EN"
 "http://www.w3.org/TR/2001/REC-SVG-20010904/DTD/svg10.dtd">
<svg version="1.0" xmlns="http://www.w3.org/2000/svg"
 width="200.000000pt" height="200.000000pt" viewBox="0 0 200.000000 200.000000"
 preserveAspectRatio="xMidYMid meet">
<metadata>
Created by potrace 1.14, written by Peter Selinger 2001-2017
</metadata>
<g transform="translate(0.000000,200.000000) scale(0.100000,-0.100000)"
fill="#000000" stroke="none">
<path d="M1285 1922 c-16 -2 -70 -13 -120 -24 -49 -11 -106 -21 -125 -23 -19
-1 -50 -6 -68 -10 -20 -4 -45 -2 -62 5 -24 10 -39 9 -94 -10 -37 -12 -72 -30
-79 -39 -6 -10 -28 -22 -47 -26 -37 -8 -140 -65 -140 -77 0 -5 -8 -8 -19 -8
-25 0 -83 -21 -77 -28 12 -11 -59 -52 -111 -63 -63 -14 -70 -21 -45 -46 13
-12 20 -34 21 -70 2 -47 -1 -55 -34 -87 -20 -20 -46 -37 -58 -37 -12 -1 -26
-2 -32 -4 -5 -1 -19 -3 -31 -3 -27 -2 -84 -52 -66 -59 6 -3 10 -8 8 -12 -3 -4
0 -8 7 -9 56 -6 100 -23 121 -47 41 -47 36 -157 -7 -181 -15 -8 -17 -12 -17
-31 0 -5 -4 -2 -9 6 -5 8 -11 9 -15 3 -3 -6 3 -14 15 -17 16 -5 20 -13 16 -31
-3 -16 0 -24 9 -24 8 0 16 0 19 0 2 0 23 -11 46 -23 31 -16 50 -37 71 -76 16
-29 27 -59 25 -65 -3 -7 3 -29 13 -49 16 -32 17 -42 6 -68 -7 -16 -15 -26 -19
-22 -4 3 -7 1 -7 -6 0 -7 -8 -11 -17 -9 -23 5 -47 -19 -61 -59 -9 -28 -8 -33
7 -38 21 -6 23 -46 3 -58 -8 -6 -9 -13 -2 -26 10 -19 47 -34 54 -22 8 12 116
12 116 0 0 -6 7 -8 16 -5 8 3 12 2 9 -4 -3 -6 3 -10 13 -10 33 0 32 -25 -1
-45 -18 -10 -54 -37 -80 -59 -41 -34 -46 -41 -30 -47 10 -4 35 -5 55 -2 25 4
38 2 38 -6 0 -6 -8 -11 -17 -11 -10 0 -43 -3 -73 -6 -62 -7 -92 -24 -42 -24
18 0 32 -5 32 -11 0 -5 3 -8 8 -5 4 2 41 1 81 -2 l74 -7 -49 -31 c-53 -33 -59
-51 -40 -118 8 -25 12 -28 42 -23 19 3 34 2 34 -4 0 -17 20 -9 21 9 0 9 3 12
5 6 4 -9 11 -9 29 0 21 10 23 16 18 53 -4 29 -2 43 6 43 6 0 11 -9 11 -19 0
-11 5 -23 10 -26 6 -3 10 -1 10 4 0 6 7 11 15 11 18 0 18 -1 4 38 -11 31 -59
73 -59 51 0 -7 8 -18 17 -25 10 -7 14 -16 10 -21 -5 -4 -15 1 -23 11 -17 23
-19 96 -3 96 7 0 9 10 7 25 -3 14 -2 28 3 30 4 3 10 -9 14 -27 8 -41 34 -98
52 -117 8 -7 12 -19 9 -27 -3 -7 3 -18 12 -26 15 -12 16 -11 3 5 -12 15 -11
17 3 17 9 0 16 5 16 11 0 6 7 3 16 -5 19 -20 28 -20 21 -2 -4 10 0 12 14 9 14
-4 16 -9 9 -23 -13 -24 2 -34 35 -26 18 5 27 1 35 -14 6 -11 17 -20 25 -20 8
0 15 -5 15 -12 0 -6 3 -9 6 -5 3 3 14 -2 25 -11 20 -17 31 -20 109 -23 49 -2
133 25 325 102 364 146 359 143 355 227 -1 20 -2 42 -1 49 1 14 65 50 146 83
33 13 65 29 70 35 6 5 17 35 24 66 11 46 11 66 1 109 -15 62 -42 76 -107 55
-19 -6 -25 -2 -33 19 -5 15 -22 52 -36 83 l-26 55 24 23 c13 12 34 26 46 29
25 8 37 44 28 82 -5 17 -3 23 4 19 17 -11 11 5 -16 41 -16 21 -35 34 -49 34
-13 0 -26 7 -29 16 -3 8 -2 12 4 9 6 -3 10 -1 10 4 0 6 -6 11 -12 11 -33 1 32
25 67 25 29 0 39 4 37 14 -2 9 4 12 16 9 10 -3 19 0 19 6 1 6 6 25 11 43 7 20
7 33 1 35 -6 2 -11 10 -12 18 -4 22 -36 67 -52 74 -8 3 -32 -1 -54 -9 -30 -10
-41 -11 -45 -2 -3 9 -7 8 -14 -2 -6 -8 -19 -12 -30 -8 -12 2 -22 1 -24 -4 -2
-5 -17 -5 -36 0 -17 5 -32 6 -32 2 0 -4 -11 -13 -24 -19 -20 -9 -26 -8 -31 6
-17 41 -13 62 16 83 17 12 33 18 36 15 10 -10 53 35 53 55 0 10 -6 21 -12 26
-18 11 -71 12 -83 3 -6 -5 -32 -14 -59 -21 -40 -10 -50 -10 -57 2 -5 8 -9 9
-9 3 0 -6 -10 -9 -24 -7 -18 4 -26 13 -31 41 -6 31 -3 39 24 64 17 16 31 26
31 23 0 -4 7 0 15 7 33 30 45 38 45 32 0 -3 10 0 23 8 12 8 36 18 53 21 42 8
104 46 104 63 0 8 -5 14 -11 14 -5 0 -7 5 -4 10 7 11 -8 14 -19 3 -8 -8 -29
-13 -76 -18 -119 -13 -151 -18 -202 -32 -32 -9 -58 -21 -59 -27 0 -6 -5 0 -10
13 -9 22 -4 30 41 72 27 27 50 52 50 58 0 5 3 16 6 24 4 11 -5 17 -33 22 -53
11 -64 12 -98 7z m-497 -682 c-3 -30 -2 -68 1 -85 5 -26 2 -31 -35 -51 -22
-12 -59 -25 -82 -29 -74 -12 -98 -71 -72 -179 9 -42 28 -60 46 -45 13 11 44 2
44 -13 0 -5 -9 -12 -21 -15 -18 -5 -15 -9 21 -29 56 -32 79 -30 137 9 26 17
60 37 74 44 21 9 29 23 39 62 7 28 16 51 20 51 14 0 20 -33 11 -70 -4 -19 -3
-48 2 -63 6 -19 6 -37 -1 -52 -8 -16 -8 -35 0 -61 8 -32 7 -40 -8 -51 -10 -7
-35 -13 -57 -13 -39 0 -39 0 -35 38 3 34 1 37 -21 34 -13 -1 -40 -16 -61 -32
-21 -17 -42 -30 -48 -30 -5 0 -15 -6 -21 -14 -19 -22 -106 -16 -126 9 -16 20
-16 20 -10 -2 4 -16 1 -23 -15 -28 -28 -9 -34 -1 -18 24 10 16 10 23 0 33 -9
9 -13 5 -18 -22 -7 -30 -8 -32 -21 -15 -7 11 -13 26 -13 36 0 9 -7 30 -15 45
-8 16 -14 38 -14 49 1 13 4 10 10 -11 5 -17 18 -39 30 -50 l21 -19 -7 33 c-5
25 -1 41 17 70 21 33 23 51 26 170 1 92 6 140 16 155 8 12 17 45 21 72 6 42
14 57 52 92 82 77 139 56 131 -47z m-98 -364 c0 -3 -4 -8 -10 -11 -5 -3 -10
-1 -10 4 0 6 5 11 10 11 6 0 10 -2 10 -4z m-190 -50 c0 -3 -4 -8 -10 -11 -5
-3 -10 -1 -10 4 0 6 5 11 10 11 6 0 10 -2 10 -4z m393 -222 c-6 -16 -22 -18
-43 -4 -13 9 -12 12 4 25 22 17 48 3 39 -21z m-284 -39 l0 -20 -9 20 c-5 11
-9 27 -9 35 -1 13 0 13 9 0 5 -8 9 -24 9 -35z m124 -91 c6 -50 -13 -83 -33
-59 -7 9 -10 18 -7 22 4 3 0 15 -8 26 -14 19 -13 23 8 43 27 26 33 21 40 -32z
m122 -52 c0 -18 -20 -15 -23 4 -3 10 1 15 10 12 7 -3 13 -10 13 -16z m-190
-94 l16 -33 -21 24 c-11 13 -20 27 -20 32 0 18 10 8 25 -23z m-85 -57 c0 -5
-9 -7 -20 -4 -11 3 -20 7 -20 9 0 2 9 4 20 4 11 0 20 -4 20 -9z"/>
<path d="M631 234 c0 -11 3 -14 6 -6 3 7 2 16 -1 19 -3 4 -6 -2 -5 -13z"/>
</g>
</svg>
